<svg xmlns="http://www.w3.org/2000/svg" xmlns:xlink="http://www.w3.org/1999/xlink" width="200" height="60" viewBox="0 0 200 60">
  <defs>
    <clipPath id="clip-SPRK_default_preset_name_custom_2">
      <rect width="200" height="60"/>
    </clipPath>
  </defs>
  <g id="SPRK_default_preset_name_custom_2" data-name="SPRK_default_preset_name_custom – 2" clip-path="url(#clip-SPRK_default_preset_name_custom_2)">
    <path id="Path_2" data-name="Path 2" d="M4.314,0V-32.909H13.4q17.4,0,17.4,16.042,0,7.619-4.831,12.243T13.035,0ZM8.17-29.421V-3.488h4.911q6.472,0,10.075-3.465t3.6-9.822q0-12.645-13.448-12.645ZM62.009,0H58.153V-15.009H41.125V0H37.27V-32.909h3.855v14.435H58.153V-32.909h3.855Zm34.1,0H91.843L88.354-9.226H74.4L71.12,0H66.828L79.45-32.909h3.993ZM87.092-12.691,81.929-26.713a13.426,13.426,0,0,1-.5-2.2h-.092a12.292,12.292,0,0,1-.528,2.2L75.687-12.691ZM104.809,0h-3.855V-32.909h3.855Zm32.244,0h-4.59l-5.508-9.226a20.094,20.094,0,0,0-1.469-2.192,8.373,8.373,0,0,0-1.457-1.48,5.047,5.047,0,0,0-1.606-.838A6.606,6.606,0,0,0,120.483-14h-3.167V0h-3.855V-32.909h9.822a14,14,0,0,1,3.982.539,8.909,8.909,0,0,1,3.167,1.641,7.625,7.625,0,0,1,2.1,2.742,9.094,9.094,0,0,1,.757,3.844,9.256,9.256,0,0,1-.516,3.156,8.241,8.241,0,0,1-1.469,2.559,8.9,8.9,0,0,1-2.295,1.916,11.716,11.716,0,0,1-3.018,1.228v.092a6.941,6.941,0,0,1,1.434.838,7.894,7.894,0,0,1,1.159,1.113,14.744,14.744,0,0,1,1.09,1.457q.539.815,1.2,1.893ZM117.316-29.421v11.934h5.232a7.936,7.936,0,0,0,2.674-.436,6.19,6.19,0,0,0,2.123-1.251,5.672,5.672,0,0,0,1.4-2,6.684,6.684,0,0,0,.5-2.651,5.159,5.159,0,0,0-1.71-4.119,7.345,7.345,0,0,0-4.946-1.48Zm44.751-3.488L151.212-12.163V0h-3.855V-12.071l-10.58-20.838h4.383l7.367,14.871q.138.275.8,2.02h.069a12.073,12.073,0,0,1,.872-2.02l7.711-14.871ZM188.459,0H184.19L180.7-9.226H166.749L163.467,0h-4.292L171.8-32.909h3.993ZM179.44-12.691l-5.164-14.022a13.426,13.426,0,0,1-.5-2.2h-.092a12.292,12.292,0,0,1-.528,2.2l-5.118,14.022Z" transform="translate(5 48)" fill="#fff"/>
    <path id="Path_1" data-name="Path 1" d="M3.632-25.378h.8a2.029,2.029,0,0,0,.906,1.213,5.547,5.547,0,0,0,2.666.479q1.179,0,7.485-.239,3.811-.154,4.751-.154a10.9,10.9,0,0,1,4.828.974,7.806,7.806,0,0,1,3.239,2.991,13.584,13.584,0,0,1,1.658,5.554q.291,2.478.5,10.92A45.206,45.206,0,0,0,25.338,0a36.13,36.13,0,0,0-9.584-1.521,19.206,19.206,0,0,0-5.228.679A24.181,24.181,0,0,0,5.418,1.333l-.5-.658a50.235,50.235,0,0,0,6.162-3.71,12.076,12.076,0,0,0,3.5-3.394,7.648,7.648,0,0,0,.847-3.8q0-.838-.034-2.479-.034-1.146-.034-2.377a15.085,15.085,0,0,1,.245-3.2,8.756,8.756,0,0,1,1.037-2.359H16.2a8.794,8.794,0,0,0-2.765,2.179,4.259,4.259,0,0,0-.689,2.5L12.878-9.9a7.023,7.023,0,0,1-1.454,4.348Q9.97-3.627,4.444,0l-.5-.675A16.06,16.06,0,0,0,7.628-3.87,4.418,4.418,0,0,0,8.52-6.481a2.872,2.872,0,0,0-.753-2,2.221,2.221,0,0,0-1.661-.828,1.539,1.539,0,0,0-.856.256A5.621,5.621,0,0,0,4.188-8l-.555-.555A4.616,4.616,0,0,1,5.183-10.7a3.932,3.932,0,0,1,2.323-.682,4.882,4.882,0,0,1,.866.085,8.618,8.618,0,0,1,1.02.256q-.034-.991-.034-1.726a7.943,7.943,0,0,1,1.084-4.366A12.5,12.5,0,0,1,14.6-20.645a48.549,48.549,0,0,1-4.875.291,10.141,10.141,0,0,1-3.729-.615A3.248,3.248,0,0,1,4.282-22.5,7.188,7.188,0,0,1,3.632-25.378Zm13.843,4.734a9.4,9.4,0,0,0-.991,2.169,9.056,9.056,0,0,0-.342,2.357l.137,6.728a6.106,6.106,0,0,1-.645,2.647,10.972,10.972,0,0,1-1.85,2.459,24.083,24.083,0,0,1,3.8-.38l.971.017v-16Zm1.948,6.563a7.827,7.827,0,0,0,1.824,1.008,5.064,5.064,0,0,0,1.687.273,5,5,0,0,0,1.7-.282,8.673,8.673,0,0,0,1.85-1q-.326-3.845-1.987-5.2a7.91,7.91,0,0,0-5.071-1.359Zm0,5.64a9.962,9.962,0,0,1,1.983-.914A6.185,6.185,0,0,1,23.2-9.6a6.294,6.294,0,0,1,1.743.231,9.474,9.474,0,0,1,1.932.863L26.6-13.142a8.877,8.877,0,0,1-1.892.914,5.822,5.822,0,0,1-1.738.248,5.761,5.761,0,0,1-1.8-.291,6.952,6.952,0,0,1-1.746-.872Zm0,3.845a33.646,33.646,0,0,1,3.392.419q1.307.248,4.093,1.034.034-2.581.034-2.666,0-.205-.034-1.641a8.5,8.5,0,0,0-1.923-1.042,5.415,5.415,0,0,0-1.8-.291,5.621,5.621,0,0,0-1.837.291,8.051,8.051,0,0,0-1.923,1.042Zm34.12-21.294.333.726a12.9,12.9,0,0,0-3.344,1.588,3.854,3.854,0,0,0-1.406,1.69A9.144,9.144,0,0,0,48.8-19v3.534l6.663-5.349a15.818,15.818,0,0,1,3.18,2.512,6.162,6.162,0,0,1,1.428,2.359,15.021,15.021,0,0,1,.35,3.863v2.547a13.075,13.075,0,0,1-.248,2.974,5.234,5.234,0,0,1-1,1.931,23.092,23.092,0,0,1-3.76,3.5A16.3,16.3,0,0,0,53.056.957a1.76,1.76,0,0,0-.444.991.54.54,0,0,0,.171.393.647.647,0,0,0,.479.171,2.482,2.482,0,0,0,.521-.077,2.482,2.482,0,0,1,.521-.077.905.905,0,0,1,.667.222.832.832,0,0,1,.222.616.971.971,0,0,1-.376.786,1.884,1.884,0,0,1-1.248.427,1.759,1.759,0,0,1-1.35-.624,2.175,2.175,0,0,1-.564-1.512A3.3,3.3,0,0,1,52.073.829,20.225,20.225,0,0,1,54.15-2.042a17.2,17.2,0,0,0,2.145-3.093A8.636,8.636,0,0,0,56.97-7.69a9.2,9.2,0,0,0-3.845-.991,10.186,10.186,0,0,0-4.358,1.008A21.251,21.251,0,0,0,43.793-4.1q1.18-.051,1.762-.051,1.351,0,3.626.222a10.514,10.514,0,0,0,1.112.068,2.773,2.773,0,0,0,1.5-.41,4.9,4.9,0,0,0,1.343-1.4l.743.419L50.057.1a26.233,26.233,0,0,0-4.078-1.4,15.231,15.231,0,0,0-3.514-.41,11.906,11.906,0,0,0-3.557.487A4.622,4.622,0,0,0,36.719.017,1.727,1.727,0,0,0,36.24,1.06a1.971,1.971,0,0,0,.41.94,1.372,1.372,0,0,1,.291.786.983.983,0,0,1-.256.7.779.779,0,0,1-.581.273,1.088,1.088,0,0,1-.8-.461,1.68,1.68,0,0,1-.393-1.128A3.191,3.191,0,0,1,35.344.59,12.825,12.825,0,0,1,37.282-1.7a12.15,12.15,0,0,0,1.947-2.333,3.351,3.351,0,0,0,.446-1.606,1.307,1.307,0,0,0-.326-.94,1.151,1.151,0,0,0-.874-.342q-1.029,0-1.663,1.47l-.76-.009a5.333,5.333,0,0,1,.564-2.046A3.411,3.411,0,0,1,37.863-8.7a4.137,4.137,0,0,1,1.743-.46,4.511,4.511,0,0,0-.825-2.863,2.751,2.751,0,0,0-2.117-.795,2.471,2.471,0,0,0-1.344.316,3.322,3.322,0,0,0-.986,1.2l-.658-.2a4.809,4.809,0,0,1,.564-1.671,3.851,3.851,0,0,1,1.5-1.3,4.42,4.42,0,0,1,2-.469q.649,0,1.5.085-.051-.8-.051-1.349a7.435,7.435,0,0,1,1.128-3.911A10.809,10.809,0,0,1,43.076-22.9a10.75,10.75,0,0,1-2.581.611,26.214,26.214,0,0,1-3.076-.444,8.668,8.668,0,0,0-1.3-.188,1.481,1.481,0,0,0-1.085.5,3.609,3.609,0,0,0-.726,1.837h-.872a7.612,7.612,0,0,1,.752-2.41,5.483,5.483,0,0,1,1.881-1.923,4.392,4.392,0,0,1,2.274-.675,10.265,10.265,0,0,1,2.394.5,10.392,10.392,0,0,0,2.719.5,10.206,10.206,0,0,0,4.583-1.3l.367.726a9.662,9.662,0,0,0-4.782,3.348,8.173,8.173,0,0,0-.857,4.305v7.978a9.834,9.834,0,0,1-.433,3.289,12.054,12.054,0,0,1-1.929,3.032A13.105,13.105,0,0,0,43.593-5.6,5.846,5.846,0,0,0,45-7.853a15.106,15.106,0,0,0,.3-3.632v-5.811a9.875,9.875,0,0,1,.624-4.033,5.822,5.822,0,0,1,2.164-2.324A24.119,24.119,0,0,1,53.543-25.891ZM48.8-14.475v.769a11.319,11.319,0,0,0,4.153.889,8.1,8.1,0,0,0,2.008-.222,10.179,10.179,0,0,0,2.008-.8,5.315,5.315,0,0,0-1.111-2.213A9.435,9.435,0,0,0,53.3-18Zm0,5.913a10.275,10.275,0,0,1,4-.889,9.635,9.635,0,0,1,1.94.184,14.34,14.34,0,0,1,2.23.7v-4.392a13.016,13.016,0,0,1-2.153.743,8.878,8.878,0,0,1-1.948.2,11.054,11.054,0,0,1-4.067-.837ZM84.826-25.891l.333.795a6.826,6.826,0,0,0-1.82,1.183A3.3,3.3,0,0,0,82.51-22.6a7.348,7.348,0,0,0-.239,2.162q0,.461.017,1.23l.291,12.766a6.155,6.155,0,0,0,.443,2.751.828.828,0,0,0,.7.461q.494,0,1.533-.991l.5.641L82.579-.869,81.519,0A4.052,4.052,0,0,1,79.6-1.675a7.759,7.759,0,0,1-.641-3.333L72.35,0q-5.526-3.64-7.528-3.64a1.207,1.207,0,0,0-.838.308.792.792,0,0,0-.256.632,1.9,1.9,0,0,0,.325.974,2.658,2.658,0,0,1,.427.94.744.744,0,0,1-.239.555A.806.806,0,0,1,63.66,0a.812.812,0,0,1-.684-.342,1.833,1.833,0,0,1-.376-1.2,4.445,4.445,0,0,1,.47-1.837,11.852,11.852,0,0,1,1.393-2.213q.188-.256.342-.479L67.248-9.4a13.006,13.006,0,0,1-3.477-3.572,7.44,7.44,0,0,1-1-3.828,8.736,8.736,0,0,1,1.256-4.563A8.584,8.584,0,0,1,67.8-24.678a11.832,11.832,0,0,1,5.187-1.213,12.993,12.993,0,0,1,7.878,2.837,13.262,13.262,0,0,1,1.774-1.6A12.9,12.9,0,0,1,84.826-25.891Zm-8.4,3.965a9.647,9.647,0,0,0-4.29-1.06,9.43,9.43,0,0,0-4.272,1,7.221,7.221,0,0,0-2.991,2.578,6.018,6.018,0,0,0-.991,3.236q0,3.5,3.787,6.2l5.714-7.8a4.9,4.9,0,0,0-2.3-.7,2.709,2.709,0,0,0-2.32,1.333q-.171.273-.341.273a.28.28,0,0,1-.2-.1.359.359,0,0,1-.1-.256,3.3,3.3,0,0,1,.538-1.47,4.015,4.015,0,0,1,1.589-1.521A4.506,4.506,0,0,1,72.46-20.8a7.751,7.751,0,0,1,2.716.579Zm2.2,1.762q-.495-.547-.665-.7a10.028,10.028,0,0,0-.853-.632L69.651-11.313h9.185ZM67.823-8.818,66.268-6.7l8.683,3.743,4.021-2.984L78.9-8.818Zm36.913-17.073.3.59a4.779,4.779,0,0,0-2.478,1.409,3.757,3.757,0,0,0-.684,2.366,45.665,45.665,0,0,0,.8,6.526q.649,3.776.769,4.775a17.463,17.463,0,0,1,.12,2.076,9.262,9.262,0,0,1-1.008,4.536,6.423,6.423,0,0,1-2.58,2.657,6.172,6.172,0,0,1-2.853.837,17.447,17.447,0,0,1-4.492-.991,14.12,14.12,0,0,0-3.553-.769,2.951,2.951,0,0,0-1.794.538,3.166,3.166,0,0,0-1.093,1.6l-.658-.265A7.077,7.077,0,0,1,86.611-2.5a5.1,5.1,0,0,1,1.854-1.62,8.024,8.024,0,0,1,2.863-.563,3.885,3.885,0,0,0,2.563-.8,2.969,2.969,0,0,0,.684-2.17A7.444,7.444,0,0,0,93.4-12.2a2.689,2.689,0,0,0-2.253-1.128,3.12,3.12,0,0,0-1.186.248,8.46,8.46,0,0,0-1.63,1l-.5-.419a6.715,6.715,0,0,1,2.119-2.309,5.153,5.153,0,0,1,2.837-.775q.239,0,.581.017a12.617,12.617,0,0,1,.795-4.572,15.213,15.213,0,0,1,2.828-4.093q-2.032.974-2.6,1.154a3.973,3.973,0,0,1-1.212.179,9.245,9.245,0,0,1-1.545-.188,9.222,9.222,0,0,0-1.528-.188,2.774,2.774,0,0,0-1.827.53,2.593,2.593,0,0,0-.8,1.675l-.658-.128a5.762,5.762,0,0,1,1.231-2.979,4.536,4.536,0,0,1,3.574-1.507,7.218,7.218,0,0,1,1.556.205,14.185,14.185,0,0,0,2.856.359,7.308,7.308,0,0,0,1.59-.154,8.28,8.28,0,0,0,1.659-.615l.419.5a8.769,8.769,0,0,0-2.487,2.957,10.171,10.171,0,0,0-.692,4.187q0,1.418.1,2.478.034.479.444,3.11a38.018,38.018,0,0,1,.5,4.358,3.891,3.891,0,0,1-1.178,3.025,6.115,6.115,0,0,1-2.834,1.2,19.589,19.589,0,0,0,2.793,2.163,3.35,3.35,0,0,0,1.6.426,2.582,2.582,0,0,0,1.939-.829,3,3,0,0,0,.794-2.162,44.383,44.383,0,0,0-.769-6.1,50.892,50.892,0,0,1-.923-7.93,9.285,9.285,0,0,1,.691-3.922,5.977,5.977,0,0,1,2.056-2.4A7.882,7.882,0,0,1,104.735-25.891Zm20.132.5,5.895,7.494-5.5,3.705a12.722,12.722,0,0,1,3.76,3.336,14.443,14.443,0,0,1,2.2,4.964,9.352,9.352,0,0,0,.736,2.153,4.548,4.548,0,0,0,.96,1.053l1.705-1.446.59.615L131.071,0a5.477,5.477,0,0,1-1.8-1.675,24,24,0,0,1-1.437-4.05A11.858,11.858,0,0,0,126.4-8.853a7.063,7.063,0,0,0-1.847-1.957,10.658,10.658,0,0,0-2.635-1.2l-1.145.763v7.106a20.046,20.046,0,0,1,3.286,1.456l1.771-1.565.548.6L121.936,0a23.532,23.532,0,0,0-4.21-1.726,13.38,13.38,0,0,0-3.6-.5,12.876,12.876,0,0,0-4.372.752A9.66,9.66,0,0,0,107.281,0l-.47-.41a12.84,12.84,0,0,1,3.417-3.2,11.337,11.337,0,0,1,4.222-1.384v-.769a7.26,7.26,0,0,0-.428-2.709,7.094,7.094,0,0,0-1.559-2.2,11.516,11.516,0,0,0-2.382-1.888,11.978,11.978,0,0,0-2.262-.923v-.7a16.938,16.938,0,0,0,3.41-1.88l3.221-2.153a11.316,11.316,0,0,0-.308-3.153,3.085,3.085,0,0,0-1.2-1.581,3.354,3.354,0,0,0-1.988-.632,3.449,3.449,0,0,0-1.216.205,6.463,6.463,0,0,0-1.354.769l-.565-.41a8.545,8.545,0,0,1,2.4-1.854,6.354,6.354,0,0,1,2.64-.487,5.624,5.624,0,0,1,2.931.7,4.407,4.407,0,0,1,1.752,1.914,5.694,5.694,0,0,1,.393,2.119Zm-2.291,2.527-1.8,1.24v9.443l6.691-4.46Zm-2.589,1.781-2.051,1.411V-4.871a14.657,14.657,0,0,1,2.051.465Zm-5.537,3.827L110.64-14.7a11.61,11.61,0,0,1,1.794,1.025,24.493,24.493,0,0,1,2.017,1.709Zm23.336-6.511-.367-.658a8.164,8.164,0,0,1,1.94-1.283,4.65,4.65,0,0,1,1.735-.3,6.167,6.167,0,0,1,2.6.555,4.838,4.838,0,0,1,1.9,1.461,6.011,6.011,0,0,1,.889,2.1,20.818,20.818,0,0,1,4.272-2.581,8.949,8.949,0,0,1,3.384-.718,6.82,6.82,0,0,1,5.272,2.529,10.206,10.206,0,0,1,2.23,6.99,13.7,13.7,0,0,1-.846,4.819,9.068,9.068,0,0,1-2.514,3.734,10.029,10.029,0,0,1-3.908,2.1,14.306,14.306,0,0,1-3.831.641l-7.251-.154a8.631,8.631,0,0,0-3.07.538,4.356,4.356,0,0,0-2.078,1.444,3.3,3.3,0,0,0-.65,1.965,3.077,3.077,0,0,0,1,2.307,3.375,3.375,0,0,0,2.42.957,6.08,6.08,0,0,0,1.591-.222,29.558,29.558,0,0,0,3.131-1.213,14.553,14.553,0,0,1,5.525-1.453,5.545,5.545,0,0,1,3.575,1.06,2.641,2.641,0,0,1,.992,2.136,1.734,1.734,0,0,1-.453,1.256,1.493,1.493,0,0,1-1.119.47,1.278,1.278,0,0,1-.966-.427,1.533,1.533,0,0,1-.4-1.094,2.492,2.492,0,0,1,.376-1.2,1.442,1.442,0,0,0,.239-.581.486.486,0,0,0-.188-.393,1.275,1.275,0,0,0-.752-.205,3.7,3.7,0,0,0-1.248.239,19.079,19.079,0,0,0-2.427,1.248,25.543,25.543,0,0,1-3.931,1.914,8.085,8.085,0,0,1-2.615.5A5.482,5.482,0,0,1,138.325,3.2a4.767,4.767,0,0,1-1.606-3.572,4.451,4.451,0,0,1,1.53-3.392,7.5,7.5,0,0,1,4.742-1.6q.017-.358.017-.528a6.566,6.566,0,0,0-.837-3.375,5.389,5.389,0,0,0-2.187-2.131,4.763,4.763,0,0,0-2.2-.477v-.615a7.282,7.282,0,0,1,1.265-.137,6.243,6.243,0,0,1,2.017.308,7.549,7.549,0,0,1,1.931,1.042q.034-.5.034-.872a4.83,4.83,0,0,0-1.29-3.452,4.077,4.077,0,0,0-3.068-1.367,8.463,8.463,0,0,0-1.06.085v-.667a4.666,4.666,0,0,1,2.17-.581,4.648,4.648,0,0,1,1.461.222,8.476,8.476,0,0,1,1.752.906v-1.5q0-3.264-1-4.563a2.973,2.973,0,0,0-2.415-1.3A3.275,3.275,0,0,0,137.787-23.772ZM149.16-17.91a7.166,7.166,0,0,0,1.935,1.3,5.139,5.139,0,0,0,1.969.359,5.587,5.587,0,0,0,2.192-.419,8.65,8.65,0,0,0,2.26-1.547,9.784,9.784,0,0,0-1.1-2.444,6.031,6.031,0,0,0-2.063-1.94,5.023,5.023,0,0,0-2.44-.641,6.787,6.787,0,0,0-2.757.735Zm-.786-4.187q-.974.581-1.9,1.248V-5.366q.632.017.957.017l.94-.017Zm.786,10.391a10.46,10.46,0,0,1,2.252-1.2,6.088,6.088,0,0,1,2.029-.333,6.141,6.141,0,0,1,2.046.333,9.824,9.824,0,0,1,2.217,1.2,14.652,14.652,0,0,0,.274-2.615,21.3,21.3,0,0,0-.274-2.991,10.7,10.7,0,0,1-2.526,1.5,6.452,6.452,0,0,1-2.286.4,5.03,5.03,0,0,1-1.772-.316,8.688,8.688,0,0,1-1.961-1.119Zm0,6.34a12.776,12.776,0,0,0,4.05-.624,6.267,6.267,0,0,0,2.56-1.675,9.694,9.694,0,0,0,1.747-3.153,8.9,8.9,0,0,0-2.132-1.265,5.639,5.639,0,0,0-1.961-.325,6,6,0,0,0-2.046.342,9.556,9.556,0,0,0-2.217,1.248Zm37.982-20.525.333.795a6.826,6.826,0,0,0-1.82,1.183,3.3,3.3,0,0,0-.829,1.313,7.348,7.348,0,0,0-.239,2.162q0,.461.017,1.23L184.9-6.443a6.155,6.155,0,0,0,.443,2.751.828.828,0,0,0,.7.461q.494,0,1.533-.991l.5.641L184.9-.869,183.835,0a4.052,4.052,0,0,1-1.923-1.675,7.759,7.759,0,0,1-.641-3.333L174.667,0q-5.526-3.64-7.528-3.64a1.207,1.207,0,0,0-.838.308.792.792,0,0,0-.256.632,1.9,1.9,0,0,0,.325.974,2.658,2.658,0,0,1,.427.94.744.744,0,0,1-.239.555.806.806,0,0,1-.581.231.812.812,0,0,1-.684-.342,1.833,1.833,0,0,1-.376-1.2,4.445,4.445,0,0,1,.47-1.837,11.852,11.852,0,0,1,1.393-2.213q.188-.256.342-.479L169.564-9.4a13.006,13.006,0,0,1-3.477-3.572,7.44,7.44,0,0,1-1-3.828,8.736,8.736,0,0,1,1.256-4.563,8.584,8.584,0,0,1,3.777-3.315,11.832,11.832,0,0,1,5.187-1.213,12.993,12.993,0,0,1,7.878,2.837,13.261,13.261,0,0,1,1.774-1.6A12.9,12.9,0,0,1,187.142-25.891Zm-8.4,3.965a9.647,9.647,0,0,0-4.29-1.06,9.43,9.43,0,0,0-4.272,1,7.221,7.221,0,0,0-2.991,2.578,6.018,6.018,0,0,0-.991,3.236q0,3.5,3.787,6.2l5.714-7.8a4.9,4.9,0,0,0-2.3-.7,2.709,2.709,0,0,0-2.32,1.333q-.171.273-.341.273a.28.28,0,0,1-.2-.1.359.359,0,0,1-.1-.256,3.3,3.3,0,0,1,.538-1.47,4.015,4.015,0,0,1,1.589-1.521,4.505,4.505,0,0,1,2.212-.581,7.751,7.751,0,0,1,2.716.579Zm2.2,1.762q-.495-.547-.665-.7a10.027,10.027,0,0,0-.853-.632l-7.462,10.183h9.185ZM170.139-8.818,168.585-6.7l8.683,3.743,4.021-2.984-.068-2.88Z" transform="translate(7 45)" fill="#0080ff"/>
  </g>
</svg>
