<svg width="auto" height="auto" viewBox="0 0 124 41" fill="none" xmlns="http://www.w3.org/2000/svg">
<path d="M20.0024 13.8264C19.1025 13.8264 19.7024 10.9264 19.5024 10.5264C19.7024 8.72637 17.0025 8.62637 17.1025 10.4264C17.3025 11.9264 16.5024 14.9264 18.3024 15.5264C22.8024 16.6264 27.6024 17.3264 27.5024 23.8264C27.7024 30.7264 28.5024 40.6264 18.4024 40.0264C12.4024 40.0264 9.50245 37.5264 9.50245 32.9264C9.70245 32.6264 9.00245 24.3264 10.0024 24.7264C17.4025 25.2264 17.4025 22.5264 17.1025 29.3264C16.9025 31.1264 19.7025 31.3264 19.6025 29.4264C19.4025 27.7264 20.5025 23.4264 18.1025 22.8264C8.10245 21.3264 9.20245 16.2264 9.30245 7.72637C7.90245 -1.97363 27.7024 -2.87363 27.0024 6.92637V13.4264C27.3024 14.4264 20.3024 13.7264 19.9024 13.9264L20.0024 13.8264Z" fill="#0080FF"/>
<path d="M38.7025 0.826348V39.1263C39.0025 40.1263 31.9025 39.4263 31.6025 39.6263C30.2025 39.6263 31.6025 1.32635 31.1025 0.826348C30.8025 -0.173652 37.9025 0.526348 38.2025 0.326348C38.5025 0.326348 38.7025 0.526348 38.7025 0.826348Z" fill="#0080FF"/>
<path d="M52.9025 13.8264C52.0025 13.8264 52.6025 10.9264 52.4025 10.5264C52.6025 8.72637 49.9025 8.62637 50.0025 10.4264C50.2025 11.9264 49.4025 14.9264 51.2025 15.5264C55.7025 16.6264 60.5025 17.3264 60.4025 23.8264C60.6025 30.7264 61.4025 40.6264 51.3025 40.0264C45.3025 40.0264 42.4025 37.5264 42.4025 32.9264C42.6025 32.6264 41.9025 24.3264 42.9025 24.7264C50.3025 25.2264 50.3025 22.5264 50.0025 29.3264C49.8025 31.1264 52.6025 31.3264 52.5025 29.4264C52.3025 27.7264 53.4025 23.4264 51.0025 22.8264C41.0025 21.3264 42.1025 16.2264 42.2025 7.72637C40.8025 -1.97363 60.6025 -2.87363 59.9025 6.92637V13.4264C60.2025 14.4264 53.2025 13.7264 52.8025 13.9264L52.9025 13.8264Z" fill="#0080FF"/>
<path d="M78.5025 9.82639H74.8025V39.1264C75.1025 40.1264 68.0025 39.4264 67.7025 39.6264C66.3025 39.7264 67.7025 10.3264 67.2025 9.82639C66.8025 9.62639 62.7025 10.3264 62.9025 9.32639V0.72639C62.7025 -0.37361 78.2025 0.52639 78.6025 0.22639C79.6025 -0.27361 78.9025 9.02639 79.1025 9.32639C79.1025 9.62639 78.9025 9.82639 78.6025 9.82639H78.5025Z" fill="#0080FF"/>
<path d="M96.6025 30.5264C96.4025 30.6264 97.1025 40.1264 96.1025 39.6264C95.9025 39.4264 81.7025 40.2264 82.2025 39.1264C82.7025 38.6264 81.3025 0.226359 82.7025 0.326359C83.0025 0.526359 97.0025 -0.273641 96.5025 0.826359C95.8025 10.9264 99.4025 9.92636 89.9025 9.92636V16.4264C96.8025 16.8264 96.3025 14.3264 96.2025 22.0264C96.5025 23.0264 90.3025 22.3264 89.9025 22.5264V30.1264C90.3025 30.3264 96.9025 29.6264 96.7025 30.6264L96.6025 30.5264Z" fill="#0080FF"/>
<path d="M110.302 39.1264L109.102 25.8264H107.502C107.302 26.0264 108.102 40.1264 107.002 39.5264C106.702 39.3264 99.5024 40.0264 99.9024 39.0264V0.726396C99.9024 0.426396 100.102 0.226396 100.402 0.226396C106.502 0.226396 118.602 -1.4736 117.802 7.8264C117.502 11.2264 118.802 20.0264 116.102 22.4264L118.302 38.9264C118.302 39.2264 118.102 39.5264 117.802 39.5264C117.502 39.3264 110.202 40.0264 110.402 39.1264H110.302ZM108.202 20.1264C111.002 20.3264 109.502 13.5264 109.802 11.9264C109.802 10.1264 108.802 9.6264 107.402 9.8264V20.1264H108.202Z" fill="#0080FF"/>
<path d="M123.802 11.1264C121.902 6.82638 119.302 12.1264 117.302 13.5264C116.502 14.1264 116.002 14.8264 115.302 15.5264C113.602 16.4264 111.902 17.6264 110.302 18.7264C107.302 21.8264 107.302 19.0264 107.602 16.3264C107.902 14.7264 108.502 12.9264 107.202 11.5264C104.902 10.2264 103.602 13.2264 102.102 14.3264C100.502 15.7264 91.6024 26.8264 92.5024 19.7264C92.5024 16.0264 97.0024 11.9264 90.7024 11.3264C89.1024 11.0264 86.7024 8.42638 86.1024 11.1264C84.1024 15.2264 80.9024 18.8264 77.8024 22.0264C77.1024 22.5264 76.6024 23.5264 75.9024 23.8264C75.0024 23.0264 74.9024 21.5264 74.5024 20.5264C74.1024 19.7264 74.3024 18.7264 74.0024 17.8264C73.3024 16.0264 71.0024 15.4264 69.5024 16.4264C68.6024 17.2264 68.1024 18.4264 67.3024 19.3264C65.8024 20.7264 64.6024 22.5264 62.8024 23.6264C64.8024 20.8264 73.5024 11.7264 66.1024 10.8264C63.8024 11.0264 62.0024 13.1264 60.5024 14.9264C59.5024 15.8264 59.0024 17.2264 58.1024 18.2264C57.4024 18.2264 57.3024 19.1264 57.2024 19.6264C56.3024 21.4264 56.5024 23.3264 56.7024 25.3264C56.6024 26.1264 58.2024 26.3264 57.4024 27.0264C56.4024 28.2264 55.3024 29.6264 53.6024 29.7264C52.3024 30.8264 50.6024 32.6264 48.8024 31.8264C43.6024 29.0264 48.1024 21.0264 48.9024 16.8264C49.5024 15.9264 49.2024 14.7264 49.9024 13.7264C50.2024 12.0264 51.8024 10.7264 51.4024 9.02638C51.6024 6.32638 49.3024 4.22638 46.8024 4.12638C45.4024 3.82638 44.1024 5.32638 43.1024 6.02638C39.4024 9.52638 36.9024 14.1264 34.6024 18.6264C33.4024 21.1264 32.2024 23.8264 30.8024 26.1264C30.5024 26.7264 30.3024 28.3264 29.2024 27.9264C27.5024 26.9264 28.8024 21.9264 28.2024 19.9264C28.4024 17.8264 27.7024 15.6264 27.2024 13.4264C26.0024 11.3264 23.5024 10.1264 21.2024 10.9264C18.1024 11.8264 17.0024 15.4264 15.5024 17.9264C12.9024 21.8264 10.4024 25.8264 8.50244 30.1264C7.70244 31.9264 6.00244 33.2264 5.10244 34.9264C4.40244 35.8264 3.70244 36.8264 2.60244 37.2264C1.80244 37.5264 0.302441 37.2264 0.00244119 38.2264C-0.0975588 39.8264 2.90244 39.0264 3.90244 39.2264C8.30244 38.2264 10.9024 34.4264 12.7024 30.6264C13.7024 28.3264 20.7024 11.3264 23.3024 13.6264C23.8024 16.0264 23.3024 18.5264 23.8024 20.9264C23.5024 21.4264 23.8024 21.7264 23.8024 22.2264C23.8024 22.6264 23.8024 23.0264 24.0024 23.3264C24.0024 23.6264 24.0024 24.0264 24.0024 24.3264C24.1024 26.3264 24.1024 28.3264 25.3024 30.1264C25.7024 32.0264 28.6024 32.6264 30.1024 31.6264C32.6024 27.8264 35.3024 24.2264 36.9024 19.9264C37.2024 19.2264 37.6024 18.4264 37.8024 17.7264C37.8024 17.6264 37.8024 17.6264 37.8024 17.6264H37.9024C38.2024 17.4264 38.3024 17.1264 38.3024 16.8264C39.9024 14.7264 40.7024 12.3264 42.2024 10.3264C43.3024 9.32638 44.1024 7.72638 45.5024 7.12638C47.3024 6.82638 47.3024 8.02638 46.9024 9.32638C46.8024 11.1264 45.7024 12.6264 45.2024 14.2264C44.9024 16.4264 43.9024 18.4264 43.4024 20.6264C43.2024 21.3264 42.7024 21.8264 42.5024 22.5264C42.4024 23.0264 42.4024 23.6264 42.3024 24.0264C41.9024 25.4264 41.3024 27.0264 41.9024 28.3264C42.1024 31.7264 45.1024 34.5264 48.4024 34.4264C49.4024 34.7264 50.6024 34.2264 51.5024 33.6264C52.7024 33.2264 53.9024 32.5264 54.9024 31.7264C56.7024 30.9264 58.4024 29.6264 59.5024 28.0264C60.2024 26.9264 60.2024 26.7264 61.5024 26.8264C62.6024 26.8264 63.6024 26.1264 64.4024 25.5264C67.1024 23.7264 69.0024 21.1264 71.4024 18.9264C71.5024 18.7264 71.8024 18.7264 71.8024 18.9264C72.5024 21.2264 71.9024 25.4264 75.1024 26.0264C77.9024 26.4264 79.6024 23.5264 81.6024 22.1264C82.1024 21.9264 82.2024 21.3264 82.5024 20.8264C83.3024 19.8264 83.9024 18.6264 84.8024 17.7264L84.9024 17.5264C85.8024 16.4264 86.5024 15.3264 87.2024 14.1264C87.5024 13.7264 88.3024 14.4264 88.7024 14.3264C93.0024 15.7264 90.6024 15.7264 90.4024 19.1264C90.1024 21.6264 90.2024 24.7264 93.7024 24.3264C94.3024 24.3264 94.9024 24.0264 95.3024 23.6264C96.5024 23.1264 97.6024 22.4264 98.4024 21.3264C99.6024 20.2264 100.802 18.9264 101.702 17.6264C103.102 16.5264 104.102 15.1264 105.502 14.1264C105.402 15.3264 104.602 16.4264 104.602 17.7264C104.602 18.0264 104.402 18.4264 104.302 18.7264C103.902 24.5264 109.002 24.7264 112.402 21.2264C113.802 20.0264 114.702 18.4264 116.402 17.5264C117.502 16.5264 118.402 15.2264 119.502 14.2264C120.002 13.7264 120.902 12.3264 121.602 12.6264C121.602 12.9264 121.302 13.2264 121.302 13.5264C120.202 16.2264 118.902 19.0264 118.102 21.9264C117.302 24.3264 115.602 26.3264 114.702 28.7264C114.702 29.9264 114.202 31.0264 114.002 32.0264C114.302 33.0264 114.002 34.4264 115.102 35.1264C116.002 35.8264 118.102 37.2264 119.202 36.2264C119.202 35.8264 118.702 35.5264 118.602 35.1264C118.302 34.4264 118.602 33.6264 118.602 32.9264C119.002 31.2264 119.002 29.4264 119.502 27.7264C119.802 26.2264 120.202 24.6264 120.902 23.2264C121.102 23.1264 121.102 22.8264 121.202 22.7264C121.202 22.5264 121.402 22.3264 121.402 22.1264C121.402 21.4264 121.702 20.8264 121.902 20.1264C122.802 17.4264 124.002 14.7264 123.802 11.9264V11.1264ZM66.9024 13.9264C65.1024 18.0264 62.2024 21.7264 59.5024 24.9264C59.3024 20.2264 63.3024 16.0264 67.0024 13.5264C67.0024 13.7264 67.0024 13.8264 67.0024 14.0264L66.9024 13.9264Z" fill="currentcolor"/>
</svg></div>
                    <div class="logo_embed_ab w-embed"><svg width="auto" height="auto" viewBox="0 0 124 41" fill="none" xmlns="http://www.w3.org/2000/svg">
<path d="M20.0024 13.8264C19.1025 13.8264 19.7024 10.9264 19.5024 10.5264C19.7024 8.72637 17.0025 8.62637 17.1025 10.4264C17.3025 11.9264 16.5024 14.9264 18.3024 15.5264C22.8024 16.6264 27.6024 17.3264 27.5024 23.8264C27.7024 30.7264 28.5024 40.6264 18.4024 40.0264C12.4024 40.0264 9.50245 37.5264 9.50245 32.9264C9.70245 32.6264 9.00245 24.3264 10.0024 24.7264C17.4025 25.2264 17.4025 22.5264 17.1025 29.3264C16.9025 31.1264 19.7025 31.3264 19.6025 29.4264C19.4025 27.7264 20.5025 23.4264 18.1025 22.8264C8.10245 21.3264 9.20245 16.2264 9.30245 7.72637C7.90245 -1.97363 27.7024 -2.87363 27.0024 6.92637V13.4264C27.3024 14.4264 20.3024 13.7264 19.9024 13.9264L20.0024 13.8264Z" fill="#000000"/>
<path d="M38.7025 0.826348V39.1263C39.0025 40.1263 31.9025 39.4263 31.6025 39.6263C30.2025 39.6263 31.6025 1.32635 31.1025 0.826348C30.8025 -0.173652 37.9025 0.526348 38.2025 0.326348C38.5025 0.326348 38.7025 0.526348 38.7025 0.826348Z" fill="#000000"/>
<path d="M52.9025 13.8264C52.0025 13.8264 52.6025 10.9264 52.4025 10.5264C52.6025 8.72637 49.9025 8.62637 50.0025 10.4264C50.2025 11.9264 49.4025 14.9264 51.2025 15.5264C55.7025 16.6264 60.5025 17.3264 60.4025 23.8264C60.6025 30.7264 61.4025 40.6264 51.3025 40.0264C45.3025 40.0264 42.4025 37.5264 42.4025 32.9264C42.6025 32.6264 41.9025 24.3264 42.9025 24.7264C50.3025 25.2264 50.3025 22.5264 50.0025 29.3264C49.8025 31.1264 52.6025 31.3264 52.5025 29.4264C52.3025 27.7264 53.4025 23.4264 51.0025 22.8264C41.0025 21.3264 42.1025 16.2264 42.2025 7.72637C40.8025 -1.97363 60.6025 -2.87363 59.9025 6.92637V13.4264C60.2025 14.4264 53.2025 13.7264 52.8025 13.9264L52.9025 13.8264Z" fill="#000000"/>
<path d="M78.5025 9.82639H74.8025V39.1264C75.1025 40.1264 68.0025 39.4264 67.7025 39.6264C66.3025 39.7264 67.7025 10.3264 67.2025 9.82639C66.8025 9.62639 62.7025 10.3264 62.9025 9.32639V0.72639C62.7025 -0.37361 78.2025 0.52639 78.6025 0.22639C79.6025 -0.27361 78.9025 9.02639 79.1025 9.32639C79.1025 9.62639 78.9025 9.82639 78.6025 9.82639H78.5025Z" fill="#000000"/>
<path d="M96.6025 30.5264C96.4025 30.6264 97.1025 40.1264 96.1025 39.6264C95.9025 39.4264 81.7025 40.2264 82.2025 39.1264C82.7025 38.6264 81.3025 0.226359 82.7025 0.326359C83.0025 0.526359 97.0025 -0.273641 96.5025 0.826359C95.8025 10.9264 99.4025 9.92636 89.9025 9.92636V16.4264C96.8025 16.8264 96.3025 14.3264 96.2025 22.0264C96.5025 23.0264 90.3025 22.3264 89.9025 22.5264V30.1264C90.3025 30.3264 96.9025 29.6264 96.7025 30.6264L96.6025 30.5264Z" fill="#000000"/>
<path d="M110.302 39.1264L109.102 25.8264H107.502C107.302 26.0264 108.102 40.1264 107.002 39.5264C106.702 39.3264 99.5024 40.0264 99.9024 39.0264V0.726396C99.9024 0.426396 100.102 0.226396 100.402 0.226396C106.502 0.226396 118.602 -1.4736 117.802 7.8264C117.502 11.2264 118.802 20.0264 116.102 22.4264L118.302 38.9264C118.302 39.2264 118.102 39.5264 117.802 39.5264C117.502 39.3264 110.202 40.0264 110.402 39.1264H110.302ZM108.202 20.1264C111.002 20.3264 109.502 13.5264 109.802 11.9264C109.802 10.1264 108.802 9.6264 107.402 9.8264V20.1264H108.202Z" fill="#000000"/>
<path d="M123.802 11.1264C121.902 6.82638 119.302 12.1264 117.302 13.5264C116.502 14.1264 116.002 14.8264 115.302 15.5264C113.602 16.4264 111.902 17.6264 110.302 18.7264C107.302 21.8264 107.302 19.0264 107.602 16.3264C107.902 14.7264 108.502 12.9264 107.202 11.5264C104.902 10.2264 103.602 13.2264 102.102 14.3264C100.502 15.7264 91.6024 26.8264 92.5024 19.7264C92.5024 16.0264 97.0024 11.9264 90.7024 11.3264C89.1024 11.0264 86.7024 8.42638 86.1024 11.1264C84.1024 15.2264 80.9024 18.8264 77.8024 22.0264C77.1024 22.5264 76.6024 23.5264 75.9024 23.8264C75.0024 23.0264 74.9024 21.5264 74.5024 20.5264C74.1024 19.7264 74.3024 18.7264 74.0024 17.8264C73.3024 16.0264 71.0024 15.4264 69.5024 16.4264C68.6024 17.2264 68.1024 18.4264 67.3024 19.3264C65.8024 20.7264 64.6024 22.5264 62.8024 23.6264C64.8024 20.8264 73.5024 11.7264 66.1024 10.8264C63.8024 11.0264 62.0024 13.1264 60.5024 14.9264C59.5024 15.8264 59.0024 17.2264 58.1024 18.2264C57.4024 18.2264 57.3024 19.1264 57.2024 19.6264C56.3024 21.4264 56.5024 23.3264 56.7024 25.3264C56.6024 26.1264 58.2024 26.3264 57.4024 27.0264C56.4024 28.2264 55.3024 29.6264 53.6024 29.7264C52.3024 30.8264 50.6024 32.6264 48.8024 31.8264C43.6024 29.0264 48.1024 21.0264 48.9024 16.8264C49.5024 15.9264 49.2024 14.7264 49.9024 13.7264C50.2024 12.0264 51.8024 10.7264 51.4024 9.02638C51.6024 6.32638 49.3024 4.22638 46.8024 4.12638C45.4024 3.82638 44.1024 5.32638 43.1024 6.02638C39.4024 9.52638 36.9024 14.1264 34.6024 18.6264C33.4024 21.1264 32.2024 23.8264 30.8024 26.1264C30.5024 26.7264 30.3024 28.3264 29.2024 27.9264C27.5024 26.9264 28.8024 21.9264 28.2024 19.9264C28.4024 17.8264 27.7024 15.6264 27.2024 13.4264C26.0024 11.3264 23.5024 10.1264 21.2024 10.9264C18.1024 11.8264 17.0024 15.4264 15.5024 17.9264C12.9024 21.8264 10.4024 25.8264 8.50244 30.1264C7.70244 31.9264 6.00244 33.2264 5.10244 34.9264C4.40244 35.8264 3.70244 36.8264 2.60244 37.2264C1.80244 37.5264 0.302441 37.2264 0.00244119 38.2264C-0.0975588 39.8264 2.90244 39.0264 3.90244 39.2264C8.30244 38.2264 10.9024 34.4264 12.7024 30.6264C13.7024 28.3264 20.7024 11.3264 23.3024 13.6264C23.8024 16.0264 23.3024 18.5264 23.8024 20.9264C23.5024 21.4264 23.8024 21.7264 23.8024 22.2264C23.8024 22.6264 23.8024 23.0264 24.0024 23.3264C24.0024 23.6264 24.0024 24.0264 24.0024 24.3264C24.1024 26.3264 24.1024 28.3264 25.3024 30.1264C25.7024 32.0264 28.6024 32.6264 30.1024 31.6264C32.6024 27.8264 35.3024 24.2264 36.9024 19.9264C37.2024 19.2264 37.6024 18.4264 37.8024 17.7264C37.8024 17.6264 37.8024 17.6264 37.8024 17.6264H37.9024C38.2024 17.4264 38.3024 17.1264 38.3024 16.8264C39.9024 14.7264 40.7024 12.3264 42.2024 10.3264C43.3024 9.32638 44.1024 7.72638 45.5024 7.12638C47.3024 6.82638 47.3024 8.02638 46.9024 9.32638C46.8024 11.1264 45.7024 12.6264 45.2024 14.2264C44.9024 16.4264 43.9024 18.4264 43.4024 20.6264C43.2024 21.3264 42.7024 21.8264 42.5024 22.5264C42.4024 23.0264 42.4024 23.6264 42.3024 24.0264C41.9024 25.4264 41.3024 27.0264 41.9024 28.3264C42.1024 31.7264 45.1024 34.5264 48.4024 34.4264C49.4024 34.7264 50.6024 34.2264 51.5024 33.6264C52.7024 33.2264 53.9024 32.5264 54.9024 31.7264C56.7024 30.9264 58.4024 29.6264 59.5024 28.0264C60.2024 26.9264 60.2024 26.7264 61.5024 26.8264C62.6024 26.8264 63.6024 26.1264 64.4024 25.5264C67.1024 23.7264 69.0024 21.1264 71.4024 18.9264C71.5024 18.7264 71.8024 18.7264 71.8024 18.9264C72.5024 21.2264 71.9024 25.4264 75.1024 26.0264C77.9024 26.4264 79.6024 23.5264 81.6024 22.1264C82.1024 21.9264 82.2024 21.3264 82.5024 20.8264C83.3024 19.8264 83.9024 18.6264 84.8024 17.7264L84.9024 17.5264C85.8024 16.4264 86.5024 15.3264 87.2024 14.1264C87.5024 13.7264 88.3024 14.4264 88.7024 14.3264C93.0024 15.7264 90.6024 15.7264 90.4024 19.1264C90.1024 21.6264 90.2024 24.7264 93.7024 24.3264C94.3024 24.3264 94.9024 24.0264 95.3024 23.6264C96.5024 23.1264 97.6024 22.4264 98.4024 21.3264C99.6024 20.2264 100.802 18.9264 101.702 17.6264C103.102 16.5264 104.102 15.1264 105.502 14.1264C105.402 15.3264 104.602 16.4264 104.602 17.7264C104.602 18.0264 104.402 18.4264 104.302 18.7264C103.902 24.5264 109.002 24.7264 112.402 21.2264C113.802 20.0264 114.702 18.4264 116.402 17.5264C117.502 16.5264 118.402 15.2264 119.502 14.2264C120.002 13.7264 120.902 12.3264 121.602 12.6264C121.602 12.9264 121.302 13.2264 121.302 13.5264C120.202 16.2264 118.902 19.0264 118.102 21.9264C117.302 24.3264 115.602 26.3264 114.702 28.7264C114.702 29.9264 114.202 31.0264 114.002 32.0264C114.302 33.0264 114.002 34.4264 115.102 35.1264C116.002 35.8264 118.102 37.2264 119.202 36.2264C119.202 35.8264 118.702 35.5264 118.602 35.1264C118.302 34.4264 118.602 33.6264 118.602 32.9264C119.002 31.2264 119.002 29.4264 119.502 27.7264C119.802 26.2264 120.202 24.6264 120.902 23.2264C121.102 23.1264 121.102 22.8264 121.202 22.7264C121.202 22.5264 121.402 22.3264 121.402 22.1264C121.402 21.4264 121.702 20.8264 121.902 20.1264C122.802 17.4264 124.002 14.7264 123.802 11.9264V11.1264ZM66.9024 13.9264C65.1024 18.0264 62.2024 21.7264 59.5024 24.9264C59.3024 20.2264 63.3024 16.0264 67.0024 13.5264C67.0024 13.7264 67.0024 13.8264 67.0024 14.0264L66.9024 13.9264Z" fill="#FFFFFF"/>
</svg>