<svg xmlns="http://www.w3.org/2000/svg" width="1631.636" height="719.503" viewBox="0 0 1631.636 719.503"><path id="Path_1" data-name="Path 1" d="M60.38-364.65c7.11,2.43,11.63.09,10.97-5.74-.4-3.29-2.37-5.23-8.91-8.74C45.87-387.99,27-410.55,19.52-430.34c-13.29-35.24,3.57-78.45,47.49-121.78,68.37-67.48,192.92-122.69,311.21-137.94,31.08-4,81.15-3.66,105.62.77,73.11,13.16,127.84,50.84,147.42,101.5,35.33,91.36-17.96,233.57-131.4,350.6C412.1-146.66,303.69-84.68,196.24-63.78c-32.19,6.29-64.83,8.14-98.33.81-34.42-7.55-50.75-26.05-47.58-47.1,4.74-31.62,52.24-75.17,116.64-106.96,21.53-10.59,63.83-28.13,65.03-26.93.37.4-4.63,14.42-11.16,31.19-20.51,52.75-22.82,61.72-17.34,67.77,3.74,4.11,8.8,3.57,13.42-1.45,5.34-5.77,6.12-8.49,3.68-12.97-2.31-4.38-2.34-4.35,19.19-58.35,7.4-18.65,14.29-34.44,15.28-35.1,3.52-2.34,46.27-15.65,65.1-20.25,21.56-5.25,40-6.68,41.17-3.17,1.06,3.14,6.32,8.08,8.6,8.05,4.34-.05,6.57-3.06,6.4-8.68-.2-6.94-4.94-12.51-12.8-15.11-11.73-3.88-41.44,1.09-82.02,13.71-9.85,3.05-18.11,5.34-18.36,5.09-.57-.6,21.08-50.27,41.63-95.59,24.97-55.01,49.73-106.28,77.81-161.06,49.23-96.1,45.86-88.99,43.86-92.72-2.23-4.18-7.05-6.86-10.14-5.69-2.43.94-19.5,22.11-27.16,33.65-4.17,6.28-4.31,7.02-2.14,10.88,2.23,3.99,1.2,6.3-30.9,70.37-36.45,72.74-63.01,129.6-92.08,197.09-10.45,24.27-19.88,45.84-20.96,47.89-1.51,2.88-7.57,5.91-25.62,12.83-32.21,12.36-47.27,18.96-68.57,30.16-45.5,23.85-83.54,54.31-100.71,80.65-17.79,27.3-17.3,55.26,1.23,73.26C58.3-62.89,74.8-54.73,93.17-49.47c43.27,12.45,91.71,5.09,136.91-5.97C412.1-99.84,588.05-263.78,641.91-432.31c37.71-117.9,8.78-203.77-83.93-248.99-22.7-11.04-37.79-16.22-62.21-21.3-70.48-14.63-167.5-2.8-260.37,31.73C113.53-625.61,25.25-554.46,3.69-484.18c-4.6,14.97-4.94,37.19-.8,51.24,8.4,28.45,35.61,60.78,57.49,68.29Zm787.493,36.775c-4.679-4.708-9.278-1.594-48.838,32.959-39.869,34.846-52.714,45.068-54.461,43.327-.512-.483-.767-4.8-.629-9.512.286-8.511,4.856-25.758,14.28-53.921,8.628-25.758,5.8-38.413-8.59-38.413-5.316,0-8.657,1.484-17.452,7.656-17.9,12.6-41.213,37.441-66,70.371-5.855,7.823-11.34,14.907-12.143,15.762-1.741,1.856,6.427-17.906,22.394-54.375,6.281-14.309,13.739-31.329,16.539-37.815,7.027-16.224,25.875-56.408,42.9-91.45,9.338-19.222,18.219-34.81,26.072-45.755,13.68-19.1,41.156-63.916,51.1-83.393,7.479-14.709,8.649-22.62,3.736-25.246-8.254-4.424-12.794-.117-34.071,32.242-10.88,16.537-39.955,69.859-42.464,77.91-.658,2.09-4.4,7.23-8.283,11.4-5.631,5.995-6.887,8.342-6.143,11.34.717,2.829-3.253,12.481-15.427,37.47-30.071,61.8-87.42,195.263-93.732,218.141-2.428,8.824-2.2,14.309.8,17.306,5.337,5.337,10.308,2.457,17.73-10.222,29.793-51.069,77.339-110.817,104.588-131.436,3.2-2.428,6.544-4.167,7.37-3.882.855.286-.915,7.97-3.912,17.109-11.223,33.954-14.857,48.919-14.857,61.085,0,11.223.234,11.94,5.374,17.08,9.848,9.856,20.047,6.252,46.01-16.136,70.168-60.569,73.626-64.087,68.114-69.6Zm136.761-.313c-1.713.6-5.594,3.546-9.622,9.058-17.139,23.359-49.467,62.255-60.289,72.542-14.623,13.877-18.819,14.821-21.51,4.8-3.912-14.426,1.316-42.069,15.711-83.253,4.482-12.767,7.568-24.076,7.056-25.729-.52-1.6-3.341-3.941-6.288-5.168-2.969-1.229-5.366-2.859-5.366-3.6,0-2.457-7.43-4.651-14.79-4.708-1.061,0-2.113.029-3.174.109-10.339.863-23.28,7-33.214,15.741-23.878,20.99-45.235,66.342-42.983,91.187.944,10.427,3.371,14.938,9.336,17.423,10.316,4.284,16.568-1.024,43.1-36.469,11.025-14.738,20.332-26.561,20.647-26.247.284.314-.915,7.253-2.742,15.427a166.012,166.012,0,0,0-3.45,30.612c-.174,13.511.315,16.735,3.362,22.534,1.945,3.715,5.8,8.137,8.6,9.827,10.17,6.221,20.94,2.938,36.162-10.968,15.734-14.4,66.883-79.686,67.4-85.169C993.2-326.9,988.947-329.753,984.634-328.188ZM855.172-292.546c-13.708,18.307-26.1,34.275-27.557,35.473-2.4,2-2.516,1.367-1.456-7.911,2.625-23.309,20.187-56.6,38.325-72.711,8.569-7.625,20.3-13.425,27.271-14.2,2.347-.255,4.146.029,5.111,1C897.9-349.859,893.9-344.267,855.172-292.546Zm182.844-118.832c.972.65,3.684,1.17,6.06,1.2,3.707.023,4.994-1.344,9.109-9.483,5.8-11.514,4.739-15.712-4-15.712-5.061,0-5.769.658-9.972,9.058C1034.79-417.49,1034.506-413.723,1038.016-411.378Zm55.493,80.023c-1.885.512-12.138,7.625-24.588,18.336-52.662,45.264-70.174,59.12-85.366,67.454-12.166,6.682-15.106,7-16.451,1.69-3.567-14.257,12.481-55.9,35.27-91.538,11.712-18.307,12.51-20.449,9.031-24.3-2.173-2.4-4.058-3.6-6.083-3.37-3.4.372-7.146,4.685-13.168,13.994-14.849,23.044-28.479,49.212-34.217,65.8-6.683,19.251-8.8,37.332-5.2,44.24,2.946,5.68,8.714,11.135,12.941,12.224,9.994,2.566,26.876-4.825,48.861-21.393,20.852-15.712,83.744-70.686,85.309-73.94,2.66-5.4-1.341-10.511-6.34-9.2Zm133.814,1.07c-2.025-4.461-3.195-3.086-8.306-2.23-3.655.6-8.057,1.682-12.912,1.711-22.877.117-26.366-1.908-39.13-15.7-5.14-5.6-11.194-10.565-13.591-11.165-9.424-2.376-18.965,5.907-41.353,35.928-6.455,8.678-11.771,15.39-11.771,14.938,0-.432,3.577-8.826,7.89-18.65,10.053-22.709,10.162-29.785.512-29.785-5.571,0-3.4-4.461-40.555,84.189-8.312,19.851-15.1,37.017-15.1,38.128s1.565,3.143,3.481,4.482c3.853,2.714,5.886,3.005,8.452,1.258.943-.658,12.224-16.765,25.048-35.84,26.021-38.67,41.587-59.946,52.779-72.111,4.482-4.885,6.515-9.226,11.28-4.058l5.14,5.512c9.965,10.763,16.019,13.818,32.645,16.391,13.591,2.113,28.872-.057,33.588-4.768C1228.039-324.661,1228.865-326.943,1227.323-330.284Zm257.512,2.025c-3.772-2.113-4.885-1.916-14.711,2.654-11.34,5.345-39.386,21.9-77.17,45.615-12.876,8.108-23.644,14.535-23.873,14.278-.263-.255,2.34-7.173,5.74-15.339,11.449-27.447,16.019-45.037,16.274-60.516.234-12.715-3.567-24.851-15.85-22.62-11.595,2.113-33.866,22.308-83.217,77.31-29.3,32.675-34.9,38.325-41.3,41.7-7.165,3.744-7.113-2.742.2-24.588a264.026,264.026,0,0,1,24.135-52.919c8.969-14.74,8.48-21.51-1.513-21.51-3.627,0-5.395,1.776-11.449,11.457-14.366,23.075-29.785,61.233-31.847,78.882-2.654,22.534,15.455,32.184,34.618,18.417,4-2.881,19.872-19.477,35.27-36.9,29.676-33.552,62.372-67.08,71.2-73.4,5.425-3.882,5.09-.6,4.541,6.367-1.053,12.853-9.021,36.7-22.534,67.345l-10.565,23.967L1320.5-232.809c-142.6,97.387-234.415,205.66-201.976,238.1,12.167,12.166,29.933,4.854,74.055-30.414,31.789-25.422,58.322-53.577,89.71-95.274,25.071-33.245,52.488-76.512,67.943-107.212l5.249-10.425,34.415-21.874c46.667-29.707,79.145-50.411,89.563-54.7,7.568-3.115,8.686-5.082,8.686-7.625a6.37,6.37,0,0,0-3.312-6.03ZM1291.167-160.581c-12.107,17.993-34.927,48.2-48.2,63.857-25.735,30.3-70.116,69.545-97.679,86.36-10.427,6.377-16.194,7.8-17.532,4.344-2.946-7.706,4.365-26.7,18.219-47.208,24.96-36.981,78.342-89.1,135.66-132.429,27.1-20.478,42.552-31.417,43.321-30.642.744.738-21.957,38.208-33.786,55.719Zm332.467-167.607c-1.713.6-5.594,3.546-9.621,9.058-17.139,23.359-49.467,62.255-60.29,72.542-14.623,13.877-18.819,14.821-21.51,4.8-3.912-14.426,1.316-42.069,15.711-83.253,4.482-12.767,7.568-24.076,7.056-25.729-.52-1.6-3.341-3.941-6.288-5.168-2.969-1.229-5.366-2.859-5.366-3.6,0-2.457-7.43-4.651-14.79-4.708-1.061,0-2.113.029-3.174.109-10.339.863-23.28,7-33.214,15.741-23.878,20.99-45.235,66.342-42.983,91.187.943,10.427,3.371,14.938,9.336,17.423,10.316,4.284,16.568-1.024,43.1-36.469,11.025-14.738,20.332-26.561,20.647-26.247.284.314-.915,7.253-2.742,15.427a166.012,166.012,0,0,0-3.45,30.612c-.175,13.511.314,16.735,3.362,22.534,1.945,3.715,5.8,8.137,8.6,9.827,10.17,6.221,20.94,2.938,36.162-10.968,15.734-14.4,66.883-79.686,67.4-85.169C1632.2-326.9,1627.947-329.753,1623.634-328.188Zm-129.462,35.642c-13.708,18.307-26.1,34.275-27.557,35.473-2.4,2-2.516,1.367-1.456-7.911,2.625-23.309,20.187-56.6,38.325-72.711,8.569-7.625,20.3-13.425,27.271-14.2,2.347-.255,4.146.029,5.111,1,1.032,1.034-2.967,6.626-41.695,58.347Z" transform="translate(0.001 708.749)" fill="#0080ff"/></svg>