<svg width="20" height="10" viewBox="0 0 20 10" fill="none" xmlns="http://www.w3.org/2000/svg">
<g clip-path="url(#clip0_223_4824)">
<path d="M13.4062 5.18872C13.1563 5.11127 12.941 5.18023 12.724 5.198C12.6726 5.20216 12.6213 5.20568 12.5698 5.20744C12.5017 5.20984 12.4321 5.21672 12.4226 5.11463C12.4197 5.08375 12.3843 5.05847 12.3588 5.06439C12.3227 5.07287 12.3213 5.11735 12.3306 5.14615C12.3613 5.24152 12.3123 5.24808 12.2389 5.25144C11.8341 5.27 11.4297 5.29928 11.0296 5.36952C10.9194 5.38888 10.8102 5.38616 10.7033 5.3636C10.5753 5.33672 10.4542 5.3532 10.3322 5.39129C10.1273 5.45529 9.92335 5.48729 9.72015 5.35608C9.70666 5.47577 9.63298 5.49193 9.53959 5.49017C9.07859 5.48169 8.61929 5.52505 8.15921 5.54073C7.97989 5.54681 7.79779 5.54441 7.62266 5.48841C7.57256 5.47241 7.53455 5.49225 7.50089 5.52713C7.40472 5.62714 7.2966 5.6281 7.18321 5.56537C7.12691 5.53417 7.07355 5.51321 7.01057 5.54793C6.97799 5.56585 6.93999 5.55657 6.90633 5.54633C6.74842 5.49833 6.58834 5.49945 6.42764 5.52201C6.35877 5.53177 6.29238 5.51929 6.22599 5.50889C6.01487 5.47577 5.80097 5.49881 5.5897 5.47289C5.52145 5.46457 5.46622 5.50425 5.40619 5.52649C5.3547 5.54553 5.30475 5.58073 5.24503 5.55737C5.24689 5.52441 5.27031 5.52089 5.28567 5.51353C5.36369 5.47609 5.35547 5.43081 5.3018 5.3772C5.2835 5.35896 5.2683 5.3372 5.25216 5.31672C5.23339 5.29304 5.22409 5.24312 5.18577 5.26312C5.15397 5.27976 5.16887 5.32488 5.18019 5.354C5.21509 5.44441 5.23184 5.52681 5.12869 5.58473C5.08541 5.60906 5.04431 5.62122 5.00429 5.58361C4.96085 5.54297 4.9275 5.53545 4.88779 5.59321C4.84234 5.6593 4.77146 5.65658 4.70289 5.64074C4.64969 5.62842 4.59741 5.6113 4.54483 5.59561C4.52373 5.58937 4.49535 5.58825 4.49209 5.56009C4.48852 5.52921 4.51474 5.51657 4.53692 5.50201C4.5833 5.47193 4.62859 5.45513 4.67916 5.49337C4.69545 5.50569 4.71546 5.50665 4.73283 5.49177C4.74416 5.48201 4.74586 5.46921 4.73966 5.45641C4.72725 5.43097 4.70491 5.43529 4.6818 5.43353C4.4983 5.42009 4.31184 5.48329 4.13082 5.40905C4.07963 5.38808 4.04597 5.45881 3.98594 5.43609C3.8938 5.40105 3.80616 5.366 3.74257 5.28376C3.71294 5.24536 3.68176 5.20856 3.63398 5.18824C3.51842 5.13927 3.43636 5.17735 3.38564 5.30024C3.35757 5.25416 3.38533 5.2348 3.38936 5.21064C3.40022 5.14519 3.38936 5.08967 3.32359 5.06279C3.23285 5.02567 3.17515 4.96262 3.15405 4.86262C3.14676 4.8279 3.13109 4.78454 3.08673 4.7927C3.0495 4.79958 3.06114 4.84166 3.06222 4.86902C3.06424 4.91526 3.04873 4.93254 3.00204 4.93382C2.93255 4.9359 2.8736 4.97575 2.8145 5.00807C2.72159 5.05879 2.63751 5.05511 2.57686 4.96422C2.48348 4.8239 2.3749 4.80086 2.24026 4.89654C2.19667 4.92742 2.15758 4.91478 2.13106 4.8751C2.07863 4.79686 2.02108 4.78118 1.9277 4.80822C1.79492 4.84662 1.6595 4.79958 1.52765 4.77078C1.47569 4.75941 1.48577 4.70741 1.49197 4.67093C1.50531 4.59221 1.47553 4.56293 1.40092 4.55925C1.34027 4.55621 1.27946 4.54372 1.22005 4.5298C1.18081 4.52068 1.14963 4.49604 1.14808 4.44804C1.1473 4.4242 1.15041 4.40052 1.16794 4.38372C1.1943 4.3586 1.20563 4.39172 1.22347 4.401C1.31902 4.45156 1.4214 4.46084 1.52719 4.45572C1.46886 4.40036 1.39254 4.39092 1.32414 4.36468C1.27031 4.34403 1.21509 4.33139 1.16359 4.30035C1.09906 4.26147 1.04524 4.30915 1.0018 4.35188C0.946738 4.40612 0.915405 4.3938 0.88981 4.32691C0.880348 4.30243 0.862975 4.28019 0.857701 4.25491C0.84312 4.18531 0.806047 4.14851 0.736245 4.13442C0.667993 4.12066 0.609204 4.08386 0.592296 4.00514C0.583299 3.96322 0.55786 3.94866 0.521718 3.96146C0.436714 3.9917 0.37901 3.94962 0.328132 3.88849C0.269963 3.81857 0.207141 3.78033 0.11981 3.84081C0.0683113 3.87649 0.0340304 3.84497 0.0120038 3.79889C-0.00816138 3.75665 -0.00443857 3.72593 0.0416311 3.69184C0.169137 3.5976 0.287181 3.54512 0.42446 3.67776C0.477044 3.72865 0.553362 3.75105 0.625026 3.77217C0.65667 3.78145 0.69731 3.79441 0.713753 3.76097C0.752222 3.68256 0.78309 3.6 0.811942 3.51728C0.820783 3.49167 0.791001 3.47887 0.770836 3.46959C0.681178 3.42783 0.591676 3.41743 0.503569 3.47471C0.468358 3.49759 0.434387 3.52432 0.389714 3.52432C0.359155 3.52432 0.327822 3.5168 0.314637 3.48863C0.301142 3.45983 0.326426 3.44079 0.347987 3.42511C0.390644 3.39423 0.37141 3.36255 0.365515 3.31711C0.343334 3.14974 0.206676 3.06605 0.131134 2.93917C0.106005 2.89693 0.0529547 2.8494 0.0982488 2.79756C0.146025 2.74316 0.213811 2.747 0.277564 2.77564C0.403674 2.83244 0.466807 2.96525 0.433922 3.10206C0.430819 3.11486 0.427562 3.12782 0.423684 3.14046C0.411895 3.17918 0.397004 3.22638 0.438265 3.24766C0.470529 3.2643 0.507913 3.23374 0.528078 3.20462C0.666287 3.00413 0.840173 2.97677 1.04787 3.07981C1.1259 3.11854 1.18546 3.06685 1.23401 3.01277C1.27388 2.96845 1.26705 2.91453 1.23277 2.86684C1.22161 2.85132 1.20671 2.83548 1.19012 2.82828C1.13272 2.80316 1.14001 2.75612 1.15211 2.71084C1.1594 2.68364 1.17119 2.64987 1.20377 2.64539C1.23246 2.64155 1.2472 2.67099 1.26256 2.69084C1.30304 2.74316 1.33484 2.80188 1.34803 2.86732C1.37455 2.99821 1.45692 3.06029 1.57946 3.06429C1.66927 3.06733 1.70526 3.10926 1.70604 3.1971C1.70635 3.2371 1.7124 3.28702 1.7504 3.30014C1.78763 3.31311 1.80531 3.26286 1.82904 3.23854C1.93002 3.1355 1.93049 3.13182 1.80314 3.07965C1.70169 3.03805 1.59714 3.00477 1.49399 2.96781C1.44901 2.95181 1.40588 2.93149 1.42016 2.871C1.43458 2.80988 1.48608 2.81804 1.5306 2.8182C1.58117 2.81852 1.6232 2.8438 1.66369 2.87132C1.74171 2.92413 1.81865 2.97837 1.89729 3.03037C1.9443 3.06157 1.98571 3.07245 2.00107 2.99453C2.0141 2.92781 2.04729 2.91149 2.11213 2.94461C2.21435 2.99677 2.33131 2.99325 2.44051 3.02093C2.59656 3.06061 2.73291 3.16574 2.90245 3.1627C2.9448 3.1619 2.97303 3.2059 3.00018 3.2387C3.06796 3.32079 3.14568 3.38015 3.25798 3.36463C3.3177 3.35631 3.31987 3.39439 3.31553 3.43839C3.30731 3.5208 3.33988 3.52624 3.39293 3.47903C3.46413 3.41551 3.5783 3.44367 3.63786 3.35551C3.64096 3.35087 3.66485 3.35391 3.67276 3.36095C3.77235 3.44991 3.89458 3.43711 4.01216 3.44143C4.06831 3.44351 4.10058 3.45263 4.07591 3.52224C4.06195 3.5616 4.06056 3.60544 4.07901 3.64496C4.08786 3.64496 4.09825 3.64672 4.09918 3.64464C4.15176 3.50783 4.25337 3.53952 4.35295 3.5664C4.40274 3.57984 4.45238 3.59424 4.50155 3.60976C4.52699 3.61776 4.55895 3.62928 4.57601 3.61184C4.6514 3.53392 4.69281 3.58096 4.75036 3.6416C4.8394 3.73537 4.86701 3.72705 4.92363 3.60816C4.95186 3.54912 4.97202 3.53968 5.01747 3.59344C5.05641 3.63952 5.08836 3.73649 5.17492 3.64512C5.18003 3.63984 5.21106 3.648 5.21695 3.65792C5.27636 3.75841 5.3716 3.74721 5.45878 3.73217C5.72341 3.68688 5.98556 3.73585 6.24879 3.74257C6.49015 3.74881 6.73027 3.76513 6.96558 3.82529C7.00281 3.83489 7.01026 3.81553 7.01972 3.78897C7.03678 3.74129 7.05788 3.69264 7.10953 3.67936C7.24138 3.64544 7.38068 3.61296 7.50927 3.65952C7.64515 3.7088 7.78072 3.71344 7.91769 3.70864C8.11624 3.7016 8.30471 3.716 8.45719 3.86801C8.49069 3.90145 8.50776 3.88401 8.5135 3.84513C8.52513 3.76481 8.55119 3.75393 8.63976 3.76577C8.85041 3.79377 9.06897 3.81809 9.26736 3.696C9.27279 3.69264 9.27977 3.68864 9.28536 3.68944C9.50624 3.72145 9.71689 3.57216 9.94073 3.65104C9.99254 3.66928 10.0434 3.64864 10.0913 3.6304C10.4151 3.50671 10.7523 3.49679 11.0912 3.50463C11.1376 3.50575 11.1798 3.50095 11.2225 3.48255C11.2608 3.46607 11.3014 3.44591 11.3416 3.44431C11.5861 3.43455 11.8122 3.31807 12.0584 3.31871C12.119 3.31887 12.1786 3.29646 12.2323 3.2643C12.2613 3.24702 12.292 3.23646 12.3246 3.24302C12.4567 3.26942 12.588 3.23758 12.7196 3.23966C12.7626 3.2403 12.8048 3.23182 12.8394 3.20686C12.9219 3.14734 13.0074 3.1483 13.0963 3.1851C13.1524 3.2083 13.1999 3.21838 13.1923 3.12862C13.1887 3.08573 13.2106 3.06909 13.2489 3.06653C13.4022 3.05581 13.5441 3.00461 13.6818 2.93821C13.7039 2.92749 13.7305 2.90477 13.7515 2.93149C13.7676 2.95197 13.7461 2.97437 13.7357 2.99421C13.725 3.01469 13.711 3.03373 13.7034 3.05517C13.6899 3.09261 13.6508 3.13854 13.7093 3.16574C13.762 3.19022 13.8173 3.18478 13.8542 3.1275C13.9395 2.99485 13.9226 2.92829 13.7774 2.87212C13.574 2.7934 13.3598 2.76428 13.1447 2.74508C12.7511 2.71004 12.3601 2.65419 11.9686 2.60219C11.9044 2.59371 11.8409 2.58379 11.7888 2.53851C11.7593 2.51291 11.7221 2.51675 11.687 2.51659C11.5327 2.51547 11.3785 2.51323 11.2242 2.51611C11.1716 2.51707 11.1603 2.47947 11.1427 2.44586C11.1066 2.37626 11.0864 2.29674 11.0231 2.24409C11.0107 2.23369 10.9975 2.22393 10.9789 2.22889C10.9595 2.25705 10.9823 2.27786 10.9929 2.3001C11.0385 2.39562 11.0273 2.40986 10.9209 2.40714C10.8188 2.40442 10.7244 2.37386 10.6316 2.3353C10.4414 2.25609 10.2499 2.22985 10.0476 2.2897C9.89466 2.33482 9.8506 2.30442 9.79755 2.15209C9.79135 2.13401 9.77941 2.10297 9.77103 2.10329C9.69921 2.10553 9.6322 2.10729 9.59885 2.0204C9.59389 2.00744 9.5655 2.02248 9.55449 2.04264C9.52579 2.09465 9.47476 2.11849 9.4262 2.14361C9.38587 2.16441 9.33344 2.19097 9.29854 2.16233C9.26209 2.13241 9.31638 2.09593 9.32398 2.06025C9.33127 2.02552 9.35314 1.98472 9.31421 1.96072C9.27776 1.93816 9.25728 1.97144 9.23991 2.00088C9.22021 2.03432 9.19275 2.0276 9.16375 2.0156C9.1124 1.99448 9.05734 1.97416 9.00398 1.99192C8.87399 2.03496 8.77999 1.974 8.69111 1.89016C8.67683 1.87672 8.66318 1.86232 8.64736 1.85096C8.60951 1.82375 8.58625 1.75655 8.5318 1.77735C8.47735 1.79815 8.4983 1.86296 8.49147 1.91016C8.48868 1.92904 8.48961 1.95592 8.47829 1.9644C8.45455 1.98232 8.43625 1.95512 8.42244 1.94008C8.34442 1.8556 8.25709 1.84135 8.15068 1.88104C8.07327 1.91 7.99137 1.89256 7.91428 1.86376C7.89706 1.85736 7.87426 1.84984 7.88 1.82439C7.88558 1.79991 7.90916 1.80199 7.92778 1.80199C7.98625 1.80199 8.0407 1.8516 8.11888 1.81383C8.01976 1.74967 7.92809 1.69895 7.82881 1.66599C7.73946 1.63623 7.68114 1.57894 7.64345 1.49158C7.58729 1.36149 7.52695 1.23333 7.46708 1.10516C7.44567 1.0594 7.44272 1.02884 7.5057 1.02996C7.70177 1.03332 7.88481 1.10164 8.07188 1.14884C8.10942 1.15828 8.1119 1.19844 8.12245 1.22821C8.17224 1.36901 8.22513 1.37573 8.3393 1.29557C8.44928 1.21845 8.57818 1.17028 8.71623 1.16452C8.73873 1.16356 8.76137 1.16644 8.78387 1.16596C8.81551 1.16532 8.85786 1.1706 8.86049 1.12708C8.86266 1.08916 8.82032 1.08996 8.79379 1.08564C8.72368 1.07428 8.65124 1.06868 8.59493 1.0186C8.56856 0.995074 8.50931 0.965633 8.58702 0.928191C8.61153 0.916351 8.60579 0.89779 8.59462 0.878749C8.5819 0.857148 8.57027 0.861948 8.54824 0.870108C8.46014 0.90275 8.37901 0.882749 8.28904 0.851388C8.20001 0.820186 8.09856 0.809785 7.99959 0.811866C7.89908 0.814106 7.80849 0.785304 7.71558 0.704821C7.8133 0.679059 7.88388 0.70338 7.95104 0.729302C8.14184 0.803065 8.33992 0.820186 8.54095 0.820186C8.57306 0.820186 8.5923 0.794905 8.61898 0.784184C8.66101 0.767543 8.70445 0.766103 8.73795 0.795705C8.77068 0.824666 8.74927 0.859068 8.73454 0.89427C8.7032 0.969473 8.77347 0.956353 8.79643 0.947872C8.88143 0.916511 8.96411 0.886269 9.05656 0.90803C9.07176 0.91155 9.0882 0.89811 9.09255 0.880669C9.09798 0.859388 9.08991 0.840347 9.07099 0.830267C9.0426 0.815226 9.01359 0.800825 8.98366 0.789625C8.94751 0.776024 8.90377 0.774744 8.87445 0.752503C8.79534 0.69234 8.72058 0.666099 8.61898 0.70162C8.54778 0.726582 8.44183 0.624177 8.42384 0.532012C8.40879 0.455209 8.38816 0.382725 8.32193 0.336323C8.29866 0.320002 8.26996 0.305121 8.24266 0.302721C8.2073 0.299681 8.15425 0.2776 8.13904 0.320162C8.12586 0.357444 8.17627 0.374405 8.20559 0.393286C8.20838 0.395046 8.21148 0.396326 8.21366 0.398566C8.24685 0.431047 8.31386 0.456969 8.29199 0.507051C8.27089 0.555693 8.21908 0.504011 8.18077 0.498091C8.14866 0.49297 8.12028 0.48897 8.08879 0.509451C8.0027 0.565454 7.82788 0.551053 7.74412 0.48609C7.73062 0.47569 7.71666 0.465289 7.7224 0.446568C7.72845 0.426247 7.74551 0.416007 7.7649 0.409766C7.82369 0.391206 7.88077 0.406886 7.93584 0.423847C7.99463 0.441928 8.0224 0.430567 8.0148 0.362244C8.00906 0.310242 8.02116 0.258239 8.0027 0.205117C7.97834 0.135033 8.01045 0.101272 8.08056 0.119192C8.15673 0.138553 8.21241 0.126713 8.24235 0.0423888C8.25445 0.00862715 8.2892 0.00030675 8.32332 -0.000653296C8.453 -0.00417346 8.57198 0.0198277 8.65869 0.132153C8.72166 0.213917 8.80651 0.199036 8.88997 0.183356C8.95511 0.171195 9.01654 0.144634 9.05284 0.240958C9.07269 0.293601 9.15087 0.288161 9.15568 0.240798C9.16142 0.184956 9.16747 0.141914 9.23184 0.137433C9.29932 0.132793 9.37688 0.116152 9.41969 0.182876C9.47522 0.26944 9.51167 0.335843 9.56628 0.183516C9.58086 0.142874 9.63685 0.143674 9.6778 0.135673C9.7473 0.121913 9.81679 0.108152 9.88628 0.0950313C9.90179 0.0921512 9.9218 0.0871909 9.92987 0.103992C9.94042 0.126073 9.92366 0.141434 9.90645 0.151514C9.85045 0.184156 9.7929 0.214237 9.73783 0.248319C9.7124 0.263999 9.67067 0.28096 9.69145 0.320002C9.70728 0.349443 9.74683 0.349603 9.77972 0.340963C9.86208 0.319522 9.90676 0.254399 9.94585 0.184796C10.0011 0.0863909 10.1028 0.0396686 10.2113 0.0644698C10.4174 0.111672 10.6338 0.122553 10.8168 0.250399C10.8286 0.258559 10.8533 0.263199 10.8627 0.256319C10.9512 0.190716 11.0137 0.259679 11.0897 0.290721C11.258 0.359524 11.4216 0.451848 11.6147 0.428647C11.7765 0.409286 11.9214 0.496331 12.0775 0.516652C12.3488 0.552013 12.6118 0.637937 12.8859 0.658418C12.9472 0.663059 13.0023 0.69522 13.0524 0.733142C13.1057 0.773624 13.1554 0.793145 13.1865 0.707861C13.198 0.676659 13.2183 0.669939 13.2475 0.684339C13.3558 0.737462 13.4751 0.722581 13.5888 0.742742C13.617 0.747703 13.6604 0.745942 13.67 0.763223C13.7279 0.866268 13.8185 0.835547 13.9023 0.831867C14.1318 0.821786 14.3577 0.826586 14.5758 0.921631C14.6887 0.970753 14.8122 0.982754 14.936 0.949152C14.9868 0.935392 15.041 0.934111 15.0805 0.977954C15.2018 1.11268 15.3515 1.09492 15.4922 1.04084C15.5871 1.00419 15.6825 1.01812 15.7764 0.998915C15.8364 0.986594 15.8291 1.05748 15.8277 1.10276C15.8268 1.13412 15.8014 1.17316 15.838 1.193C15.8665 1.20852 15.9005 1.19236 15.929 1.17476C16.0117 1.12356 16.1229 1.09988 16.1144 0.966913C16.1482 0.959873 16.1605 0.983074 16.1749 0.999235C16.2399 1.07172 16.3112 1.07412 16.3779 1.00948C16.4341 0.955072 16.4532 0.982114 16.4905 1.03332C16.5479 1.11172 16.5755 1.22293 16.6944 1.24293C16.7584 1.25381 16.8112 1.25141 16.8651 1.2066C16.9922 1.10132 16.9951 1.10356 17.1234 1.20036C17.1813 1.24421 17.247 1.23989 17.3091 1.22373C17.3752 1.2066 17.3898 1.23189 17.387 1.29189C17.3837 1.36165 17.3854 1.43158 17.4132 1.49702C17.4251 1.52502 17.4426 1.55078 17.4779 1.54582C17.5126 1.54102 17.5239 1.51638 17.5256 1.4823C17.5289 1.41909 17.4999 1.34853 17.5667 1.29909C17.6434 1.24245 17.7315 1.23253 17.8163 1.25269C17.9103 1.27509 17.9696 1.27333 17.9584 1.13556C17.9966 1.28949 18.0917 1.31349 18.2162 1.29637C18.2685 1.28917 18.2548 1.32661 18.2381 1.36229C18.2075 1.42774 18.1275 1.46934 18.1441 1.56054C18.1857 1.55926 18.2113 1.53382 18.2351 1.50822C18.3789 1.35381 18.5506 1.30453 18.7515 1.35957C18.8199 1.37829 18.8893 1.39317 18.958 1.41077C19.0228 1.42726 19.0369 1.46198 18.992 1.5167C18.9653 1.54918 18.9282 1.58038 18.9733 1.62598C19.0194 1.67271 19.0495 1.6319 19.0777 1.60262C19.1053 1.57398 19.1312 1.5727 19.1641 1.58982C19.1984 1.60774 19.2335 1.6255 19.2699 1.63783C19.3455 1.66359 19.3569 1.70775 19.3117 1.77159C19.2611 1.84296 19.2712 1.87528 19.363 1.8932C19.4953 1.91896 19.5578 2.06585 19.4953 2.18569C19.4751 2.22441 19.4886 2.25049 19.5119 2.2737C19.5603 2.32218 19.5736 2.37162 19.5308 2.43114C19.4944 2.48187 19.526 2.50651 19.5671 2.53083C19.669 2.59099 19.6675 2.61131 19.5774 2.69132C19.5232 2.73948 19.4168 2.75708 19.4699 2.87756C19.5297 3.01373 19.6287 3.08189 19.7531 3.07165C19.8431 3.06429 19.912 3.00733 19.9974 2.97181C20.0105 3.03837 19.9714 3.07309 19.936 3.10174C19.7364 3.26334 19.5401 3.43103 19.2892 3.50767C19.2251 3.5272 19.1658 3.56336 19.1044 3.592C18.9552 3.66128 18.8075 3.72593 18.6395 3.74657C18.3957 3.77633 18.1881 3.91457 17.975 4.03026C17.4447 4.31795 16.9579 4.67941 16.44 4.98871C16.1958 5.13447 15.9892 5.34104 15.762 5.51545C15.3284 5.84827 14.8753 6.15612 14.4717 6.52846C14.1481 6.82687 13.8205 7.12193 13.523 7.44882C13.4274 7.55379 13.3116 7.63283 13.2101 7.72948C13.1605 7.77668 13.107 7.82004 13.0742 7.88308C13.0651 7.90085 13.0556 7.92165 13.0336 7.92085C12.9483 7.91765 12.9042 7.98309 12.8686 8.04149C12.7065 8.30662 12.4839 8.51431 12.2602 8.71816C11.9704 8.98186 11.708 9.27531 11.41 9.52972C11.2266 9.68637 11.0475 9.84878 10.8323 9.95998C10.8066 9.97326 10.7793 9.98399 10.7526 9.99535C10.7363 10.0022 10.7191 10.0014 10.709 9.98655C10.6975 9.96942 10.709 9.9579 10.723 9.94638C10.7528 9.92142 10.7897 9.89326 10.7667 9.84878C10.7441 9.80462 10.6996 9.82158 10.6617 9.8267C10.6383 9.8299 10.6124 9.8291 10.5997 9.80846C10.5576 9.73997 10.5049 9.71981 10.4283 9.74653C10.3636 9.7691 10.2955 9.78014 10.2634 9.8659C10.1884 9.73245 10.1182 9.60797 10.065 9.47452C10.0419 9.41676 10.0309 9.35419 9.97284 9.31723C9.94957 9.30235 9.94569 9.27147 9.9536 9.24475C9.96539 9.20443 9.95764 9.16635 9.95019 9.12714C9.92723 9.00634 9.9277 9.00666 9.8157 9.04954C9.75909 9.07114 9.68789 9.11338 9.64647 9.05706C9.6156 9.01514 9.67144 8.95434 9.69859 8.90825C9.76126 8.80233 9.80733 8.678 9.94399 8.64328C9.95438 8.64056 9.96973 8.62664 9.97004 8.61752C9.97485 8.45351 10.0983 8.36135 10.1881 8.2551C10.378 8.03029 10.6209 7.85828 10.7982 7.61939C10.8097 7.60403 10.8258 7.58835 10.8429 7.58211C11.0815 7.49603 11.2059 7.28578 11.3445 7.09233C11.3988 7.01664 11.4585 6.95904 11.5563 6.9568C11.6022 6.95584 11.6132 6.936 11.5963 6.88544C11.5572 6.76735 11.5837 6.72575 11.7036 6.69359C11.7874 6.67103 11.8798 6.68607 11.9569 6.63855C11.9979 6.61326 12.0711 6.59294 12.003 6.51614C11.9793 6.48942 12.0022 6.45918 12.0249 6.43902C12.1254 6.34989 12.2061 6.24157 12.2977 6.1438C12.3832 6.0526 12.489 6.00107 12.6084 5.97451C12.6669 5.96155 12.7348 5.94811 12.6629 5.86283C12.635 5.82971 12.6525 5.80074 12.6832 5.7801C12.7262 5.75114 12.7674 5.71738 12.814 5.69642C13.0558 5.58761 13.1817 5.34424 13.4062 5.18872ZM1.06246 3.97554C1.09581 3.97762 1.13195 3.96338 1.16669 3.94626C1.2607 3.90033 1.26954 3.86049 1.19694 3.78577C1.138 3.72513 1.07611 3.66688 1.0108 3.61376C0.959458 3.572 0.913388 3.58464 0.894154 3.65296C0.882675 3.69392 0.874919 3.73713 0.872282 3.77969C0.865457 3.88977 0.948755 3.97682 1.06246 3.97554ZM2.3248 3.28718C2.29439 3.28894 2.27159 3.29582 2.26833 3.32351C2.26446 3.35775 2.29346 3.37087 2.31704 3.37439C2.41073 3.38799 2.49465 3.43007 2.58183 3.46303C2.60525 3.47183 2.63363 3.47839 2.65706 3.47295C2.73027 3.45583 2.78829 3.48367 2.84568 3.52496C2.87438 3.5456 2.90664 3.5616 2.9389 3.57584C2.95659 3.58368 2.97753 3.5824 2.98901 3.56048C2.99878 3.54192 3.00421 3.51808 2.98746 3.50543C2.90276 3.44191 2.8235 3.35279 2.72826 3.32655C2.59827 3.2907 2.45292 3.33855 2.3248 3.28718ZM0.841414 3.1811C0.794569 3.1771 0.773628 3.21278 0.759512 3.2563C0.745862 3.29806 0.748189 3.33919 0.79007 3.35935C0.853668 3.38991 0.919593 3.41615 0.986293 3.43903C1.01437 3.44863 1.04353 3.44351 1.04725 3.39935C1.05532 3.30447 0.941619 3.1787 0.841414 3.1811ZM1.55898 3.52432C1.54937 3.47871 1.51245 3.47023 1.47848 3.47055C1.42527 3.47087 1.38463 3.49791 1.37998 3.55744C1.37672 3.59872 1.40247 3.6376 1.43954 3.6304C1.49306 3.62 1.53494 3.57968 1.55883 3.52432H1.55898ZM18.0181 1.60998C18.0063 1.56518 18.0025 1.5119 17.9412 1.51254C17.8925 1.51302 17.8557 1.54998 17.8599 1.59302C17.8649 1.64343 17.9083 1.67911 17.9609 1.68375C18.0099 1.68807 18.0143 1.64711 18.0181 1.60998ZM1.98013 3.7208C1.97113 3.6752 1.94321 3.64912 1.90272 3.6432C1.86658 3.63792 1.84037 3.65792 1.83835 3.69792C1.83602 3.74497 1.86736 3.76129 1.90598 3.76161C1.93607 3.76177 1.97175 3.76401 1.98028 3.72097L1.98013 3.7208ZM9.18717 0.517932C9.16452 0.474569 9.1411 0.426247 9.08603 0.412327C9.06416 0.406726 9.03407 0.414567 9.03903 0.445128C9.04974 0.510251 9.10558 0.528332 9.15646 0.547853C9.17507 0.554893 9.18608 0.542893 9.18717 0.518092V0.517932ZM7.73372 1.32549C7.76816 1.31765 7.79717 1.30389 7.79608 1.26245C7.79499 1.22293 7.7694 1.2026 7.73403 1.20084C7.69929 1.19908 7.68067 1.22293 7.6816 1.25685C7.68254 1.29109 7.69339 1.32181 7.73388 1.32533L7.73372 1.32549ZM9.9975 1.30901C10.0001 1.28357 9.98664 1.27285 9.96989 1.27349C9.92366 1.27557 9.89047 1.29893 9.87961 1.34709C9.87558 1.36485 9.88706 1.38373 9.90474 1.38133C9.94926 1.37557 9.97733 1.34437 9.9975 1.30901Z" fill="black"/>
<path d="M0.150391 2.09533C0.238807 2.08557 0.297286 2.14317 0.353128 2.19373C0.518173 2.34302 0.699504 2.45615 0.920081 2.49231C0.932645 2.49439 0.944744 2.50015 0.956688 2.50495C0.986005 2.51695 1.00229 2.54095 1.01005 2.57103C1.01672 2.59711 1.0192 2.62463 1.00198 2.6472C0.980731 2.6752 0.955292 2.65744 0.931714 2.6496C0.736422 2.58367 0.571223 2.46207 0.403852 2.34494C0.337462 2.29854 0.275415 2.24526 0.212748 2.19341C0.183586 2.16925 0.151011 2.14525 0.150391 2.09533Z" fill="black"/>
<path d="M0.822839 2.75684C0.901949 2.81652 1.0141 2.82756 1.09011 2.9082C1.11523 2.93492 1.09895 2.96341 1.08281 2.98901C1.06249 3.02133 1.03209 3.03029 0.999052 3.01909C0.908153 2.98789 0.834628 2.92996 0.782664 2.84804C0.761102 2.81396 0.754122 2.77076 0.822839 2.75684Z" fill="black"/>
<path d="M10.2258 2.30029C10.2486 2.30493 10.284 2.29229 10.281 2.33453C10.2787 2.3683 10.2562 2.38686 10.2216 2.3851C10.1917 2.3835 10.1591 2.37966 10.1601 2.33965C10.161 2.29581 10.1998 2.30701 10.2257 2.30029H10.2258Z" fill="black"/>
<path d="M5.47841 3.5708C5.50353 3.57752 5.52835 3.58408 5.52897 3.61768C5.52959 3.6468 5.51269 3.65657 5.48709 3.65673C5.46243 3.65673 5.44319 3.65048 5.44412 3.61976C5.4449 3.59576 5.45188 3.57576 5.47841 3.5708Z" fill="black"/>
</g>
<defs>
<clipPath id="clip0_223_4824">
<rect width="20" height="10" fill="white"/>
</clipPath>
</defs>
</svg>
