<svg width="151" height="5" viewBox="0 0 151 5" fill="none" xmlns="http://www.w3.org/2000/svg">
<g clip-path="url(#clip0_120_1380)">
<path d="M60.5617 4.45919C62.2972 4.48675 64.0347 4.50481 65.7683 4.5433C76.8073 4.7871 87.8478 5.04801 98.8697 4.99335C101.523 4.98005 104.215 4.98242 106.797 4.90781C109.57 4.8275 112.375 4.94726 115.155 4.89878C119.659 4.82037 124.129 4.7372 128.41 4.4972C129.257 4.44968 130.455 4.38267 131.091 4.45396C133.6 4.73577 135.671 4.53522 137.853 4.42497C138.731 4.38077 139.564 4.30188 140.465 4.28335C142.778 4.23535 145.118 4.21206 147.446 4.17879C150.284 4.1384 150.954 4.02767 150.998 3.52011C151.015 3.32526 150.779 3.11996 150.477 2.92606C149.697 2.42611 149.096 2.33391 146.459 2.35435C139.271 2.40947 132.061 2.38096 124.816 2.26595C124.047 2.2536 123.22 2.26928 122.518 2.31443C121.015 2.4109 119.523 2.39902 117.915 2.33676C115.741 2.25312 113.537 2.23221 111.591 2.41945C110.565 2.5183 110.608 2.39949 110.566 2.28164C110.512 2.12908 109.915 2.0673 109.287 2.08821C107.427 2.15047 105.572 2.13146 103.71 2.03261C102.417 1.9637 102.13 2.10057 101.766 2.27166C101.398 2.44464 100.4 2.42991 99.8981 2.29922C98.9647 2.05637 97.8428 2.05637 96.547 2.0635C93.1308 2.08203 89.7073 2.12481 86.2847 2.07491C85.2299 2.0597 84.5134 2.01312 83.4478 2.11055C80.4219 2.38761 77.0992 2.53019 73.5145 2.3149C68.5004 2.0136 63.5411 1.68996 58.3423 1.526C55.4433 1.43428 52.8184 1.31262 50.6613 1.73368C50.1529 1.83301 49.2979 1.77883 49.2524 1.64434C49.1608 1.3744 48.316 1.30549 47.1074 1.267C43.4978 1.15199 39.8969 0.999437 36.2814 0.920548C32.9749 0.848311 29.8241 0.957616 27.3858 1.36157C26.5974 1.49226 25.7982 1.49226 24.8349 1.4685C23.8511 1.44426 23.3746 1.35254 23.4775 1.17718C23.5553 1.04459 24.3305 0.901538 23.5093 0.784629C22.7889 0.681977 21.7992 0.589781 20.9535 0.584553C18.6303 0.570296 16.314 0.633503 14.0481 0.419645C11.2724 0.515168 8.84348 0.198658 6.2583 0.0760461C3.98262 -0.0318334 3.84599 -0.0589221 3.01202 0.241905C0.838197 1.02415 0.66484 1.91618 0.0301761 2.78111C-0.16179 3.04202 0.56298 3.20503 2.18049 3.2958C5.09867 3.4588 8.04476 3.60851 11.008 3.72446C13.6563 3.82807 16.3493 3.91836 19.0123 3.94545C25.2977 4.01008 31.5768 4.03242 37.8593 4.07567C39.5923 4.08755 41.3284 4.10703 43.0634 4.13365C48.8963 4.22299 54.7293 4.31709 60.5627 4.40976C60.5627 4.42592 60.5627 4.44255 60.5627 4.45871L60.5617 4.45919ZM56.7258 1.94754C56.5221 1.93281 56.4193 1.86105 56.2699 1.81542C56.6098 1.79404 56.9947 1.73986 57.2802 1.75745C58.1518 1.8102 58.9897 1.88814 59.8311 1.96037C60.0906 1.98271 60.3198 2.01835 60.5632 2.04829C60.3266 2.0635 60.096 2.08203 59.8507 2.09201C59.7111 2.09772 59.5475 2.08869 58.9133 2.07871C58.4873 2.054 57.5921 2.00932 56.7258 1.94754Z" fill="#0080FF"/>
</g>
<defs>
<clipPath id="clip0_120_1380">
<rect width="151" height="5" fill="white"/>
</clipPath>
</defs>
</svg>
